<svg xmlns="http://www.w3.org/2000/svg" height="544" width="544" preserveAspectRatio="none" viewBox="0 0 0.756 0.756"><path d="M.378.753h.019L.417.75.434.749.453.745.471.741.49.736.507.73.524.723.54.716.557.708l.015-.01.015-.01.015-.01.014-.01L.63.654.643.643.655.63.667.616.678.602l.01-.014.01-.016.01-.015L.715.54.723.524.73.507.736.489.74.472.745.453.748.435.751.416.752.397v-.02a.375.375 0 1 0-.374.376z" fill="#0052a2"/><path d="M.378.645h.014L.406.644.419.642.432.64.445.637.458.633.47.63.483.624.494.62.506.613.517.607.528.6l.01-.008.01-.008.01-.008.01-.01.008-.008.009-.01.008-.01L.6.528.607.515l.007-.01L.62.493.625.482.63.47.634.457.638.444.64.431.643.418.645.405V.39L.647.377a.268.268 0 1 0-.268.268z" fill="#abb6db"/><path d="M.485.6V.588L.484.584.483.58.482.574.48.57.48.565.477.561.475.556.472.552.47.548.467.544.464.54.46.536.457.533.454.529.45.526.446.523.442.52.438.517.434.514.429.512.425.51.42.508.415.506.41.505.405.503H.4L.395.5H.379C.314.5.269.543.27.605L.485.599z" fill="#ffd90f"/><path d="M.387.105H.372v.05L.386.15V.104zM.303.117l-.02.007V.13h.001v.004l.001.002v.002L.287.14v.003l.001.002.001.005.001.005v.002L.29.159v.003l.001.002v.002l.001.002v.004h.001v.003L.309.173.303.117zM.466.12.458.17h.014l.01-.044H.48V.124H.476L.476.123.473.123H.47L.47.121H.467V.12H.465zM.213.163.194.18V.18h.001v.001l.001.001v.001l.001.001v.001L.2.186v.002L.2.19l.001.002.001.001.001.002L.206.2l.002.004v.002L.21.207v.001L.213.21v.002l.001.001.001.001v.001l.001.001v.001l.001.001V.22L.232.216.213.163zM.55.167.53.215l.003.003H.54L.54.216h.005V.215h.001L.564.178.551.167zm-.404.07L.136.253v.001h.001v.001l.001.001v.001H.14v.001H.14L.141.26l.001.001.001.002.001.001.002.002v.002L.15.27l.003.003.001.002.001.001.002.002V.28l.002.002.001.001v.001H.16v.001l.001.001.001.001v.001h.001l.009-.01L.147.236zm.464 0L.58.285.59.296V.294H.59V.293h.001V.292L.593.291V.29h.001V.29L.596.288.596.286.597.285.6.283.6.28.601.279.604.275.607.271.61.27V.267L.612.266.612.264.614.262V.261L.616.26.617.258V.258h.001V.256L.619.255V.254H.62V.253L.611.238zM.113.327.11.34.152.38.158.37V.368H.156V.367H.155V.367H.154V.365H.153L.153.363.15.363.15.361.148.36.146.358.144.356.142.354.14.352.136.348.132.344.13.342.128.34.126.338.124.336.122.334.12.332.119.33.116.33V.327H.114V.326H.113V.325zm.532.001L.643.329V.33H.642V.33H.641v.001H.64v.001L.638.333.638.334.637.336.635.337.634.34.633.34.63.343.627.346.625.347.624.35.623.35.62.351v.002H.618v.001H.617v.001H.617v.001H.615v.001H.614v.001l.006.01.026-.025L.645.327zM.111.414.113.43l.092.06L.201.476H.2L.199.474.196.473.194.471.192.47.19.47.19.469.189.468.187.467.184.464.18.462.177.459.173.457.169.454.164.451.156.445.148.44.144.437.14.434.136.43.132.43.128.426.125.424.123.423.122.422.121.42.119.42.116.417H.116L.115.417H.114V.415H.112L.112.414H.11zm.535.004H.644L.644.42H.643L.64.421.64.422.638.423.636.425.634.426.632.428.629.43.626.43.624.433.62.435.617.438.611.442.604.447.596.452.588.458.58.463.572.47.555.481.538.492.53.498.522.504.514.509.506.514.5.52.492.524.49.526.486.528.483.53.481.532.478.533.476.535.474.537H.472L.47.54.468.54v.001H.465v.001L.463.543l.002.005L.64.436.646.418zM.448.443.436.466.434.462v.004l.001.002V.47h.001v.003l.017-.03H.448zm-.1.005V.45H.35v.005H.35V.46L.352.46v.004l.001.003V.47l.002.005v.007l.001.003v.002l.001.002v.004l.001.002V.5L.359.5v.001h.006L.357.452.349.448zM.335.481.33.487l.001.001V.49L.333.49v.001l.001.001v.002h.001l.001.002.001.002V.5l.001.002.001.001v.001L.34.505v.002h.004L.334.48zm.119.01H.451v.002H.45v.001L.448.495v.001L.448.497v.001L.445.499V.5L.443.502.442.505.44.508.438.51H.438v.002H.436v.001H.435v.001H.434v.001l.003.003.015-.02V.49zm.17 0L.621.493H.62L.62.493H.618L.617.495.615.495H.614L.612.498H.61L.607.5H.605L.603.502.6.502.594.505.59.508.582.51.576.514.569.517.563.52.549.527.535.533.528.536.52.54.515.543.508.546.503.548.497.551.495.552.492.553.49.554.488.555.486.556.484.557.482.558H.48L.48.56H.476v.001H.474v.004l.144-.06L.623.49zM.137.5h.001v.002H.14v.001L.14.506l.002.002v.001L.144.51V.51h.001v.001l.138.052.001-.006L.137.5zM.32.505.316.51l.005.006.004-.002V.512L.323.511V.51H.322V.508H.321V.506H.32V.505zM.255.513.25.518l.04.027L.292.54.291.538H.29V.537H.29L.288.536.286.535.286.535.284.534.283.533.28.53H.28L.278.528.274.526.271.524.269.523.267.522.265.52H.264L.262.517H.261V.516H.26L.259.515H.257V.514H.256V.513H.254V.512zM.3.516.294.518l.01.01.004-.002V.524H.306V.522H.305V.521L.304.52.304.52V.518H.302V.517L.301.516zm.159 0v.002H.458V.52H.457V.52L.456.521.454.522v.002H.453v.001H.452v.001H.451v.001H.45v.001l.002.003.01-.01L.46.518zm.12.041H.577v.001H.573L.573.56H.57L.568.56H.565L.56.562.557.562.553.563.548.564.544.565.539.566.53.568.52.57.515.571.511.572.507.573.502.574H.498L.495.577H.49L.488.578H.485L.482.579H.48L.478.58v.004L.571.567l.01-.01zM.177.56l.007.008.093.017L.277.58H.271L.27.577H.268L.266.576H.263L.261.575H.258L.254.573H.25L.245.573.241.572.236.57.226.569.218.567H.213L.208.564H.204L.199.562H.196L.192.562H.188L.187.56H.184L.183.56H.179L.178.558H.176z" fill="#ffd90f"/><path d="M.178.27V.264C.178.26.184.257.19.259.192.26.193.255.197.253.2.252.195.245.2.243c.002 0 .006.001.006-.002L.204.238C.204.233.2.23.2.224.2.22.206.22.21.22.212.22.213.22.213.217c.003 0 .009-.003.01.001C.226.214.229.217.228.214.226.208.226.21.225.21.221.204.225.19.233.191c.006 0 .013.003.014.01C.25.196.257.2.26.203.264.206.263.21.263.215.263.22.265.213.267.213c0-.005 0-.008.004-.01S.272.195.273.192C.275.186.277.184.283.182c.003-.003.007 0 0-.002C.29.183.286.18.289.175.292.169.299.17.306.17l.002.001.004.008c0 .012-.004.009.005.008C.319.187.322.185.32.184.318.181.318.177.32.174c0-.005.003-.005.007-.006S.324.162.326.159C.33.155.332.15.336.147.337.145.34.144.343.145.349.15.35.157.355.161.36.166.363.155.37.153c.003-.001.006-.002.007 0C.383.148.391.15.4.152.407.152.4.16.402.167.402.17.408.164.41.17L.42.16c.002 0 .005.004.007.003C.433.161.434.151.44.149.45.147.455.158.457.167.457.166.459.164.46.166.464.172.467.17.474.17l.004.005C.483.165.495.169.5.175.505.18.502.19.496.191l.003.006C.499.197.5.196.502.196c.004.001.005.005.01.007 0-.01.012-.013.016-.007.003.004.007.013 0 .02h.003c.001 0 .003-.002.003 0h.005c.005-.004.01-.005.015 0 .004.004.009.015 0 .02.002 0 .003.001.003.002.001.005-.003.01.004.01L.564.247c.006 0 .014.001.015.008C.58.259.575.261.576.266.573.266.571.268.57.27H.18zm.391 0H.57v.001h.001v.001l.001.001v.001h.001V.28H.571C.578.283.59.282.587.292L.591.3c0 .01.007.007.012.013.002.003 0 .006 0 .01C.6.327.607.337.6.343c.006.003 0 .013.005.013.004 0 .01.002.013.005.003.003 0 .011-.002.014-.005.005 0 .01-.005.016a.015.015 0 0 1-.004.002H.144A.03.03 0 0 1 .151.382C.153.379.148.372.16.368.164.368.165.366.164.364.162.361.155.361.155.354c0 .003 0 0 .001 0C.157.353.152.352.15.35.14.345.139.34.142.334a.014.014 0 0 1 .01-.009l.01.002.001-.004C.165.318.17.323.173.32L.166.31C.163.307.165.306.168.303.163.3.16.293.163.288.166.285.167.28.17.278s.007 0 .008-.006V.27H.57zm.04.124H.607v.001H.605v.001H.603v.001H.602L.601.399.6.4.6.4v.001L.598.403c.009.004.01.019.005.025-.003.005.001.001 0 .01C.604.444.597.45.59.443.587.449.586.459.578.462.574.462.569.464.566.46.564.464.558.465.559.467c.003.006 0 .01-.005.014C.551.483.546.478.544.48.54.484.534.484.536.492c0 .003.002.007 0 .011-.002.003 0 .01-.003.008C.529.51.523.514.52.512.518.51.516.511.514.508c-.003.002-.002 0-.001 0a.028.028 0 0 1-.01-.001C.499.505.498.504.498.5.498.499.497.497.496.498.494.498.493.5.493.501c0 .008-.006.01-.008.013C.48.52.475.526.469.526S.463.52.46.516L.456.51C.45.497.448.49.456.48.457.479.462.474.46.472.455.466.463.46.467.454V.45C.457.439.44.442.436.455.433.466.442.48.438.492.43.509.418.522.41.54.408.547.412.554.418.557.423.559.43.558.433.562c.009.012.023.012.032.022.003.003.004.007.007.008.017.006.032.017.05.015C.518.615.509.617.502.62.483.627.467.635.448.64a.279.279 0 0 1-.21-.03L.241.609.257.608C.273.603.287.595.302.589.313.585.318.57.323.556a.03.03 0 0 1 .01-.01.142.142 0 0 0 .035-.05A.031.031 0 0 0 .37.469C.361.45.342.444.325.439.323.448.329.455.328.464c0 .002.005.002.006.005 0 .006.001.015-.006.018C.33.49.33.492.328.493A.042.042 0 0 1 .3.517C.296.518.292.53.284.53.28.529.274.524.274.52.272.514.277.51.27.51.265.51.26.508.255.514l.001.001C.252.517.25.524.246.524.24.524.235.52.231.518.23.517.233.51.229.509A.057.057 0 0 0 .216.505C.213.505.207.502.207.498.207.492.203.489.2.484V.477C.194.472.193.467.194.459L.197.456C.194.453.194.45.19.448.185.455.171.457.167.45.164.445.161.434.172.431.167.428.17.425.167.421.158.41.167.406.162.4c0-.002-.005.002-.005.002-.003.002-.01.002-.011 0C.144.4.144.398.144.394h.464z"/><path d="M.378.743h.018L.415.74.433.74.451.736.47.732.486.727.503.72.52.714.536.707.552.7.567.69.582.68.596.67.61.66.624.648.636.636.648.623.66.61.67.596.68.582.69.567.7.552.706.536.715.52.72.503.727.486.732.47.736.45.739.433.741.415.743.396V.377a.366.366 0 1 0-.365.366z" stroke="#ffd90f" stroke-miterlimit="10.433" stroke-width=".012750000000000001" fill="none"/><path d="M.377.54H.373L.371.542H.37v.001H.37v.001H.368v.001L.367.546v.002L.366.548V.55H.365C.365.557.389.557.389.554.389.553.388.54.378.54zM.365.555H.363L.362.557.361.558v.001H.36V.56H.36v.003L.358.564c0 .01.005.016.019.016C.39.58.395.572.395.565S.39.555.39.555L.378.558C.37.557.365.555.365.555zm.054.02C.418.577.416.578.414.582c0 0-.017-.011-.02.004 0 0-.013-.003-.011.014 0 0 .021-.024.052-.011V.582H.433V.581H.432V.58H.427v.001H.426v.001H.425S.423.576.419.576zM.336.58C.332.58.329.585.329.585V.583H.323v.001H.322v.001H.321v.001H.32L.324.59c.02-.014.047.008.047.008C.366.577.356.586.356.586.352.573.342.583.342.583.34.58.337.579.336.579zm.038.002S.37.602.378.615v.002H.38L.38.62.382.62h.001v.002h.002l.001.001.002.001.001.001H.39l.002.001h.004l.002.001h.008L.408.625h.003L.412.624h.002V.623h.002L.418.622H.42V.621L.418.618C.367.64.38.581.38.581H.374zm.044.006H.41L.41.589H.407L.404.59H.402L.4.592H.397L.396.593.395.593H.394L.392.595v.001L.39.596H.389L.388.599H.386V.6H.383L.383.603S.403.607.4.596c0 0 .013.009.013 0 0 0 .008.006.013-.002 0 0 .02.003.011-.003H.437L.434.59H.432L.432.588H.429L.427.587H.418zm-.08.001H.333L.332.59H.33L.33.59H.328v.001H.327c.007.01.01.003.01.003.004.01.015.004.015.004C.355.608.365.6.365.6c.003.006.008.001.008.001L.37.6H.37L.368.597H.367L.366.596.364.596H.363L.362.594.36.594.357.592H.357L.355.591.352.59H.35V.59H.346V.588H.337z" fill="#ffd90f"/><path d="M.362.554s0 .019.012.026M.369.556S.37.576.387.58M.374.557s.007.016.02.016M.382.557s.005.009.014.01M.387.557S.39.56.396.561M.393.557S.397.57.382.58M.388.556S.386.576.369.578m.012-.02S.373.573.361.573M.373.557S.366.566.357.567m.01-.012L.36.561" stroke="#000" stroke-miterlimit="10.433" stroke-width=".0022500000000000003" fill="none"/><path d="M.347.385v.001h.001v.001L.35.39v.002H.35v.001h.001v.001l.006.012.001.001c.005.009.01.016.015.02L.377.43c.001.005 0 .006.002.01 0 .004.005.006.007.01C.39.454.393.46.395.465.397.464.396.46.399.46.397.459.396.454.395.453.391.446.385.445.383.437s0-.01-.004-.015C.377.417.371.414.368.41A.02.02 0 0 1 .364.405.074.074 0 0 0 .356.389C.353.385.35.381.35.377m.183.01H.528v.001H.527V.39H.526V.39H.525v.001H.524L.523.393C.516.397.504.412.496.418.483.428.475.422.46.423.45.423.447.425.435.435.434.436.43.44.43.441l.002.003c.002 0 .002 0 .003-.002a.043.043 0 0 1 .02-.01C.466.427.477.432.492.427.503.424.515.408.523.4.533.391.548.387.558.395m-.2-.104v.002L.356.298a.026.026 0 0 0 0 .026C.36.327.365.328.37.333m.034-.06H.397v.001H.394v.001H.392L.39.277H.39v.001H.387v.001H.385C.384.28.383.282.38.282.377.281.375.284.372.287A.033.033 0 0 0 .36.31c0 .005.001.01.004.015l.007.01M.379.21V.223H.38v.003l.001.001v.002L.383.23c.002.006.007.01.01.016A.03.03 0 0 0 .397.25L.406.26l.01.015C.417.277.42.28.42.284m0-.02v.002L.42.267v.001L.422.27.423.27v.001l.001.001v.001h.001v.001L.426.28c0 .002.002.003.003.005A.037.037 0 0 1 .432.3c0 .014 0 .03-.012.04a.102.102 0 0 0-.025.025V.355L.399.349A.05.05 0 0 1 .41.337C.416.334.42.33.422.324M.262.306l.002.001h.001l.002.001h.002L.271.31h.002L.275.31h.008C.292.31.3.308.306.31M.247.293h.004v.001c.017.01.034.01.052.008.004 0 .008 0 .011.002M.313.283C.324.29.33.295.335.306M.272.255h.003l.001.001h.001l.001.001H.28V.26h.002V.26l.002.001.002.002.002.002.002.002.001.002.002.002.002.002.002.002.001.003L.3.28l.002.002.002.002C.31.29.319.294.325.3l.002.002m-.07.066L.26.37l.003.002h.003L.27.374l.006.002h.003l.003.002h.003L.29.38.292.38l.003.002.003.001h.001l.002.002h.001l.002.001.001.001.002.001c.01.008.018.015.025.024l.009.014M.257.376h.005l.002.001h.003L.27.38h.003l.002.002h.003l.003.002.003.001.002.001.003.001.003.001v.001h.002L.295.39h.001L.297.39h.001C.316.4.326.416.332.424m.095.08L.425.505v.001H.424v.001C.425.507.422.51.422.511.42.514.42.511.418.516.415.524.408.531.408.535.406.54.403.549.408.555.413.56.42.56.427.564L.43.568l.02.013C.457.585.463.59.467.594L.472.6A.019.019 0 0 0 .478.6a.04.04 0 0 1 .009.003h.005M.423.488h.001V.49h.001V.49c.001.003 0 .005-.002.007 0 0-.001.002-.003.002L.418.497m.006-.06V.449L.426.45v.003L.428.46A.073.073 0 0 0 .431.47a.023.023 0 0 1 .002.013.051.051 0 0 1-.003.013.021.021 0 0 1-.007.008C.42.507.416.505.413.503M.42.506v.001L.417.509V.51L.416.51v.001L.415.513v.001H.414v.001H.413v.001L.412.517v.001H.411v.001H.41C.401.538.392.555.407.562c.014.007.025.012.042.025C.458.59.46.6.47.605a.072.072 0 0 0 .014.002M.418.44v.002L.42.446V.45L.42.452v.004l.001.002V.46l.001.002v.002l.001.002v.002L.426.47v.003l.001.001C.428.48.428.484.427.49M.326.432H.34l.001.001h.003v.001h.002v.001c.022.008.032.016.039.039C.387.483.384.495.381.5a.095.095 0 0 1-.014.023L.342.55C.334.56.33.57.33.572l-.01.014M.298.426h.007c.01.001.017.006.025.008.012.004.023.01.034.018.013.01.019.029.012.044a.123.123 0 0 1-.03.042.248.248 0 0 0-.014.015C.327.558.326.565.322.572L.32.576C.318.588.307.595.297.598M.506.312H.503v.001H.5v.001H.498v.001H.497v.001H.496v.001H.495v.001a.044.044 0 0 1-.004.009L.486.335.482.342l-.009.01L.47.358C.467.375.468.39.46.403.46.405.456.405.453.405L.455.403V.4A.056.056 0 0 0 .463.37" stroke="#ffd90f" stroke-miterlimit="10.433" stroke-width=".00375" fill="none"/><path d="M.34.15C.337.15.334.157.334.157.326.156.331.17.331.17H.326v.001H.325v.002H.324v.005h.001V.18C.33.175.337.177.337.177L.34.16h.003c-.002 0 0 .017 0 .017.002-.003.007 0 .007 0 0-.009.008-.01.008-.01C.353.165.347.165.347.165L.346.156C.344.15.342.149.34.149zm.05.003L.386.155S.38.155.376.16c0 0-.007-.005-.013.009 0 0-.007.001-.009.007h.001l.001.001.001.001V.18h.001v.006S.369.164.386.162L.39.163S.351.179.364.218l.004.008S.375.216.37.212C.367.21.383.194.371.192c0 0 .022-.004.012-.017 0 0 .017-.007.015-.018L.39.153zm.053.001C.44.154.438.16.438.16.434.159.434.165.434.165v.001l.001.001V.18C.44.184.427.193.427.193c.006.004 0 .01 0 .01.006-.006.01.002.01.002C.447.183.443.16.443.16h.003C.452.176.443.207.443.207a.137.137 0 0 1 .009.008C.458.207.45.205.45.205.459.192.454.18.454.18.46.176.452.17.452.17.45.157.446.154.443.154zm-.021.01C.417.164.41.18.41.18.407.168.393.177.393.177.4.186.384.194.384.194.389.197.382.206.382.206v.002l.001.001v.002l.001.002v.003h.001v.002h.001V.22h.001v.002l.001.001v.001L.39.227H.39v.002h.001V.23h.001C.393.19.42.173.42.173h.003c-.03.033-.024.07-.024.07.018-.018.01-.027.01-.027C.436.201.42.193.42.193.436.186.429.177.429.177.434.165.425.166.425.166L.422.164zm.07.01H.483C.48.174.478.18.478.18.468.167.46.183.46.183v.001H.458V.196L.46.196V.2h.001v.003C.477.186.489.179.489.179L.49.18C.48.184.458.22.458.22c.001.006.005.01.005.01C.498.214.48.204.48.204.5.198.491.19.491.19.498.189.498.18.496.176.495.174.493.174.491.174zm-.193 0c-.003 0-.007 0-.008.005 0 0-.004.004-.002.008 0 0-.015-.008-.011.018 0 0-.012.006.001.025V.221L.28.22V.217L.282.215V.213L.283.21V.209L.284.207V.204L.285.202.285.2V.198L.288.196V.194L.288.192.29.19.29.188.292.186V.184L.295.183.295.18.297.18.299.178.302.177S.27.227.297.26c0 0 .002-.012-.002-.02 0 0 .01-.007.004-.021 0 0 .013-.007.004-.02L.302.196s.01-.01.002-.022H.299zm.05.005A.035.035 0 0 0 .34.18S.33.176.324.191c0 0-.015 0-.012.018 0 0 .023-.022.033-.025.01-.004.003.002.003.002H.346v.001H.345L.345.188H.343V.19L.34.191.339.192.337.194.335.195.334.197.332.199.33.2.328.202.326.204.324.206.322.21.32.21.318.213.317.216.315.218.313.221v.003L.31.226.31.23.309.232.308.235v.003L.306.24v.004S.343.222.323.217C.324.217.355.209.34.2.34.2.361.178.35.18zM.231.195C.226.2.234.215.234.215c-.012.01.005.01.005.01-.008.006 0 .006.003.006l.012.01A.137.137 0 0 1 .233.204S.233.2.234.2l.001.002.001.002.002.002v.002L.24.21v.002l.002.001.001.002.001.002.001.001.001.002.001.002.001.001.001.001.001.002v.001L.253.23v.002h.001l.001.002.001.001.001.001.002.002.001.002L.26.24l.002.002.001.001.001.001.001.001.001.001.001.001h.001L.27.25h.002V.25h.002C.262.22.258.224.258.226.26.216.253.217.253.217.26.213.256.205.256.205.254.199.246.206.246.206.243.196.23.196.23.196zm.023.046.002.002L.254.241zM.521.2H.52V.2H.518v.001H.517v.001L.516.204v.001L.515.206v.002H.514v.007L.52.208.522.21.518.217C.52.218.519.228.519.228L.53.22H.523L.526.214C.528.205.526.2.522.2zM.502.205H.5v.001H.498v.001H.497v.001H.496V.21L.495.21v.001s-.003.003 0 .01c0 0-.017-.007-.013.014l.013.01S.501.226.5.218h.002s.003.027-.006.05c0 0 .022-.02.011-.029 0 0 .016-.017.002-.017V.21H.507V.208H.506V.207H.505V.206L.504.205H.503V.204H.501zm-.07.001S.43.207.43.21c0 0-.004.003 0 .012 0 0-.006-.002-.003.008 0 0-.017-.002-.005.017 0 0 .002.004.006.007 0 0-.015.006.012.028V.248L.437.244V.237L.436.234V.232L.435.229V.227L.434.225.434.223.433.22h.002s.02.03.008.078c0 0 .024-.04.009-.036 0 0 .018-.034-.003-.02 0 0 .008-.028-.004-.019 0 0-.007-.018-.013-.018zM.216.22C.215.22.214.22.213.222c0 0-.013 0-.005.011 0 0-.004.009.01.004H.22L.21.23.21.228h.001V.23h.001L.215.23h.001v.001h.001l.001.001H.22L.22.234h.002v.001h.005l.001.001H.23S.228.223.223.225L.216.22zm.317 0C.526.22.524.238.524.238.51.222.512.257.512.257H.506V.272l.005.006A.11.11 0 0 1 .544.225l.003.002C.532.234.519.268.517.272.517.275.522.287.522.287.537.279.53.27.53.27.552.264.54.25.54.25.56.25.55.234.55.234.556.214.538.223.538.223A.008.008 0 0 0 .533.22zM.357.224a.045.045 0 0 0-.009.001C.328.227.318.27.318.27H.316V.254L.318.254V.253L.319.252V.25L.32.249V.247H.32V.244h.001V.243h.001V.241C.303.254.314.259.314.259.306.266.315.277.315.277.32.286.323.266.323.266.329.276.336.25.336.25.343.267.35.237.35.237.356.257.36.224.359.223H.357zM.323.242zm.145-.01C.466.233.464.235.463.238c0 0-.002.008.003.008 0 0-.012.013 0 .02 0 0-.007.006.003.01 0 0 .008-.007.002-.036h.002v.002h.001v.003l.001.001v.002l.001.001v.004l.001.002V.273L.475.273.475.275s.018-.01.01-.018c0 0 .01-.01-.015-.024H.468zM.23.239C.229.238.226.239.226.246c0 0-.013-.01-.015.005C.21.251.199.247.2.26c0 0-.017.006-.004.015 0 0 .009.001.013-.004 0 0 .008.01.02-.006 0 0 .01.008.019 0L.258.258H.241L.24.259H.234L.23.26H.226L.224.26H.22L.22.261H.216L.214.262H.21L.21.264.206.264H.204L.202.267H.199V.263S.227.252.241.254C.24.254.24.239.232.238H.231zm.143 0C.366.239.357.254.357.254a.045.045 0 0 1 .026.002L.381.257H.379L.377.255H.362L.36.258H.359L.357.259V.26H.354V.26L.352.261v.001H.35v.002H.35L.349.267H.348v.002H.346L.345.272v.002L.342.275v.003L.341.28.34.282v.002L.34.286V.29L.338.292v.006C.34.289.344.288.344.288.373.271.364.266.364.266.38.275.38.264.38.264c.013.01.012.001.012.001.014 0 .003-.007.003-.007C.396.246.379.249.379.249.382.246.381.244.381.244.38.24.377.238.374.239zM.57.253a.017.017 0 0 0-.005.001C.563.255.553.252.549.254H.547v.001H.546v.008h.001C.548.26.562.258.562.258l.002.001C.556.26.543.278.543.278L.564.274c0-.007.005-.01.005-.01C.576.254.573.252.57.252zM.265.259C.262.26.26.261.257.265c0 0-.007.01-.001.017a.084.084 0 0 0 .017.016C.277.3.277.297.281.297H.309S.301.283.29.285c0 0 .005-.02-.015-.01 0 0-.003-.017-.01-.017zm-.08.006H.183c-.01.006.03.025.024.02C.207.283.202.28.2.28.19.274.19.268.185.266h.002v.001H.19C.188.264.187.264.185.264zM.23.269c-.002 0-.003 0-.005.004 0 0-.018.005-.007.024 0 0-.01.011 0 .025l.008.02V.34L.224.338V.334L.223.332V.328L.222.325V.294L.225.29.225.288.226.285.227.283V.282L.229.28H.23V.277L.232.277V.276L.233.275.233.274.234.273.235.272S.233.269.23.269zM.24.274.238.275.235.278.235.28.233.282H.233L.232.285.23.286V.29L.228.29v.006L.227.299V.336H.23V.34C.25.315.238.313.238.313.253.304.24.293.24.293.248.275.239.274.239.274zm.252 0C.488.275.485.278.48.285L.478.286S.468.27.458.295H.46L.46.293.463.292.465.291h.001L.466.29h.002L.469.29.471.289h.001L.474.287h.004L.48.286h.005L.487.285H.504l.003.001h.001L.51.289h.003S.509.279.499.285c0 0-.002-.01-.008-.01zM.184.279C.182.278.18.279.177.282v.002h.001L.18.287v.001L.182.29V.29l.001.002.001.001.002.002v.002L.188.3l.001.002.002.002.001.003.002.002.001.002.002.002.003.005.002.002.002.002.001.002.002.002.002.002L.21.33.21.331l.002.002.002.001.002.002S.217.31.208.321C.208.32.213.29.201.3c0 0 0-.027-.01-.01 0 0-.002-.012-.007-.012zm.38.001C.558.28.55.284.55.284.545.273.536.294.536.294.564.287.578.296.578.296v.003H.575V.297H.573V.296H.571V.295H.568L.567.294H.562L.56.293H.548L.546.296H.544L.542.297H.539L.537.298H.535L.533.299.532.3H.53L.528.3H.527L.525.302.523.303H.521v.001H.52c.027.014.027.001.027.001.013.006.025.002.025.002C.57.316.588.31.588.31.594.31.58.293.58.293.586.284.567.285.567.285.567.281.566.28.563.28zm-.152 0C.408.28.403.287.403.287.397.271.382.293.382.293.36.293.376.317.376.317H.372v.001H.371L.37.32.37.32v.007h.001v.001L.373.33v.001l.002.001v.001l.001.001.001.001v.001l.002.001v.001H.38V.34H.38V.34h.001v.001L.383.338c-.008-.01 0-.022 0-.022C.385.294.417.285.417.285.416.28.414.28.412.28zm-.24.003C.16.295.175.301.175.301.163.303.183.326.183.326c.01-.007.02.002.022.005L.203.329.202.328.201.326.199.324.198.322.196.32.195.318.192.314.189.31.186.306.185.304.183.302V.3L.18.298.18.296.178.294V.292L.175.291V.289L.174.288.174.287V.286L.172.285.171.283V.282zm.033.05h.001zM.418.287H.415L.412.29H.412L.41.29.407.293H.406L.405.295H.403v.001H.4v.002H.398v.001H.398L.397.3H.396v.001H.394L.394.303.392.304.391.305v.001H.39l-.004.01C.394.314.398.306.398.306.398.296.408.3.408.3.413.304.42.3.42.3L.418.287zM.492.29H.484L.481.292H.477L.474.294H.471L.468.294.465.295.463.296.46.297.458.3H.456L.454.302.453.302.45.303.45.305H.448v.002H.445V.31H.444L.444.31v.001H.442C.476.31.465.305.465.305c.027.011.025 0 .025 0C.511.31.508.3.508.3c.018.001.01-.007.01-.007H.517L.514.292H.51L.51.291H.504L.502.29h-.01zM.419.304.415.306C.402.298.398.314.398.314c-.01.001-.01.013-.01.013C.394.316.417.312.417.312v.004H.409L.407.318.406.318H.404L.403.32.4.32.4.321H.398v.002H.395L.395.326H.394L.393.328.39.328V.33L.39.33v.001L.388.332H.388v.002H.386v.001L.385.337C.413.343.417.325.417.325.422.316.42.304.42.304zM.323.305C.316.305.31.315.31.315.297.301.295.33.295.33.283.333.297.354.297.354.3.3.338.319.338.319H.336L.335.317H.323L.322.32H.32L.32.32H.319L.318.322.317.322.314.324v.001H.314v.002H.312L.312.327v.001L.31.33.31.331.309.333.308.335v.001L.306.338V.34L.305.342v.002L.304.346V.355C.322.35.314.343.314.343.34.339.327.329.327.329.348.331.351.323.351.323.353.31.332.312.332.312.33.307.326.305.323.305zm.181.003C.501.308.505.32.505.32c-.02.006.009.022.009.022C.498.343.52.36.52.36V.344L.518.343V.341L.517.34V.337L.515.335V.33L.513.329V.327L.513.325V.323L.511.32.51.319V.318L.51.316V.315L.508.314V.312L.507.311V.31L.503.308zm.005 0L.51.31zM.51.31v.002h.001l.001.002v.001l.002.002v.001L.515.32l.001.002.001.002v.002L.52.327V.33l.002.002v.003l.001.002V.34l.002.003v.005l.001.003v.006l.001.004v.012L.524.376S.54.356.534.351H.532C.533.345.535.33.526.33.526.332.53.31.52.316L.51.31zm.051 0C.553.31.545.319.545.319.543.313.54.314.54.314c-.017.007 0 .023 0 .023C.53.347.542.35.542.35A.327.327 0 0 0 .557.317H.56C.56.331.537.373.537.373L.54.38.543.368C.558.355.553.352.553.352.566.342.557.34.557.34l.01-.007C.575.323.567.32.567.32V.312A.01.01 0 0 0 .561.31zm.007.003zM.466.314.453.32v.001L.451.322v.002L.45.325v.001L.45.328V.33L.448.332v.004L.447.338v.02L.45.36.45.362v.003l.002.003V.37l.002.003h.002S.476.336.46.339c0 0 .026-.02.005-.024zm.125 0c-.009 0-.02.02-.02.02C.563.33.564.349.564.349.558.351.559.37.567.362a.186.186 0 0 0 .02-.027L.59.336C.58.37.544.383.546.383H.562C.57.362.582.368.582.368.582.366.588.36.588.36c.007-.008 0-.01 0-.01S.597.344.598.338C.6.332.597.318.597.318L.59.315zm-.3.002C.274.316.281.33.281.33.277.329.274.334.274.334c-.01.02.022.029.022.029C.276.34.29.327.29.327V.325H.288V.317H.29V.316h.001L.293.315h.001-.002zm-.02 0C.267.316.25.318.232.348h.001V.35l.001.001v.001h.001v.001l.001.001h.001v.001h.005V.353h.001V.352L.244.351V.35h.001V.348h.001V.347h.001V.344h.001s.017.004.012-.02c0 0 .008-.009.015-.009H.272zm.167.003C.432.319.434.342.434.342.42.348.445.36.445.36V.358L.443.356V.355L.442.354V.349L.441.347V.331L.444.328V.323h.001C.442.32.44.318.438.318zM.274.32zm0 0C.27.32.265.327.265.327.27.333.262.347.262.347L.257.347c.004.006.02.01.02.01C.257.339.276.329.276.329H.273V.32zM.171.324C.168.324.166.326.164.33c0 0-.018-.005-.018.005h.002L.15.337H.15l.002.001.002.001h.002L.157.34.16.34l.002.001.002.001.003.001h.002l.003.002h.002l.003.002.005.002.006.001.002.001.003.001h.002l.003.001L.2.354h.003l.002.001H.21S.21.343.203.343C.203.342.194.324.18.33.18.33.175.325.17.324zm.183.007H.35S.347.34.336.338H.34L.341.34h.003V.34h.002l.001.001h.001L.35.343H.35l.002.002.002.001v.001l.002.001v.001h.001L.358.35H.36v.002L.36.353l.001.002.001.001v.001C.371.376.351.335.322.347c0 0 .008.004-.006.012 0 0 .026.007.023-.001.002.004.01.022.02.01 0 0 .026.007.016-.011 0 0 .014-.015-.02-.019 0 0 .004-.007-.001-.007zm.14.002L.492.337V.34H.49V.35l.001.001.001.001h.001v.001h.001L.5.356S.491.365.51.373c0 0-.009.007.005.013 0 0 .002-.024-.02-.053zM.146.337C.14.347.161.351.161.351c-.009.01.016.01.016.01C.173.376.204.359.204.359H.2L.198.357H.196L.194.356H.192L.19.355H.188L.185.353H.18L.178.351H.175L.173.35H.17L.168.348.165.348.163.347.161.346.16.345H.158L.156.342H.155L.153.342.15.34.148.34.148.338.146.337zm.08.005zm.258.009L.478.353C.47.359.484.366.484.366c-.01.007.01.015.01.015C.487.384.5.395.5.395V.379L.498.377V.375L.497.373V.37L.496.369.496.367V.366L.494.364.494.363V.36L.491.36V.359L.49.358.49.356.487.355V.354L.486.352H.486V.351L.484.35zM.412.356C.408.356.405.358.406.364c0 0-.023-.002-.017.013 0 0-.019.01-.007.02 0 0-.003.01.01.004 0 0 .014.007.017-.009 0 0 .014.004.017-.008 0 0 0 .008.024-.005L.448.377H.447L.446.376.443.375H.442L.441.374H.439L.437.373H.431L.429.372h-.01L.416.375.413.376H.412L.411.377H.41L.408.378.407.378H.406L.404.38H.403L.402.382.4.382.4.383.398.385H.396L.395.388.394.39.392.39.391.392.39.393.388.395.387.397V.394S.403.357.44.37C.44.37.432.35.427.36c0 0-.009-.005-.015-.005zM.599.36C.592.36.584.375.584.375.571.368.567.383.567.383.59.383.6.375.6.375L.61.373C.588.393.557.388.557.388s.03.02.03.008c0 0 .026-.002.02-.01V.384h.001V.383H.61V.382L.61.381.612.38V.38h.001V.378L.614.377V.376L.615.375V.375L.617.372V.367C.617.359.604.364.604.364.602.361.6.36.599.36zM.174.368H.17C.153.37.153.385.153.385.143.395.15.4.15.4c.004.003.01-.005.01-.005.01.006.016-.002.016-.002.007 0 .007-.006.007-.006C.183.379.202.372.2.372a.003.003 0 0 0-.003.001C.183.378.194.371.194.371H.187C.172.375.15.399.15.399V.396L.153.393.155.39V.39L.157.388.157.386.158.385.16.383.16.382.162.38V.379h.002V.376h.002L.167.375.168.375.17.372h.002V.371h.001L.176.37h.001V.37h.001C.177.368.175.368.174.368zm.14.003L.31.375h.002V.37zM.312.374.312.377c-.005.014.02.017.02.017-.007.008.014.024.014.024C.336.407.338.395.338.395h.003c0 .014.02.031.02.031C.357.406.344.394.344.394V.386L.343.384V.383L.342.382V.381H.341L.34.38.34.38H.337V.378H.334C.327.379.321.37.321.37l-.01.003zM.223.371a.01.01 0 0 0-.005.002C.2.377.172.414.172.414c-.003.001 0-.002 0-.002V.41h.001V.408h.001V.407L.177.405V.405L.178.403V.402h.001V.401H.18V.4S.182.398.18.397C.18.396.173.4.173.4.165.402.167.414.167.414c.003.01.012 0 .012 0C.185.42.19.41.19.41.21.411.205.396.205.396.223.394.218.379.218.379.225.381.224.374.224.374.224.372.224.37.222.37zM.478.38C.475.383.468.4.472.399.477.397.477.393.48.393h.002V.391h.002V.39h.001V.39h.001C.486.387.484.383.48.38zM.453.382S.439.394.418.398H.416V.4H.414L.414.4H.413L.412.402.41.402H.41L.409.404.408.404H.407L.406.407H.405L.404.407H.403L.402.41H.4V.41H.4v.001L.398.413v.001H.397v.004S.409.414.41.427c0 0 .007-.008.007-.015 0 0 .007.007.012-.006 0 0 .022.001.015-.011 0 0 .009-.006.009-.013zM.236.386S.201.42.198.426H.196S.199.42.205.416H.19v.001H.188v.001H.187V.42H.186v.001L.19.422S.185.426.189.43c0 0 .01.005.019-.002 0 0 .003-.004 0-.006.003.002.013.006.014 0 0 0 .001-.003-.001-.007C.22.415.23.41.23.4.23.4.239.387.236.386zm.027.007H.26v.003l.001.002h.001V.4h.001V.4S.262.408.275.406c0 0-.012.012.034.005H.307V.41H.306L.304.408H.304L.303.407.3.407H.298L.298.405H.297L.296.404.295.404.292.403.29.402.287.4.284.4.282.399.279.398.277.397H.275V.395H.272L.272.394H.27L.269.393H.264V.392H.263zm-.011 0L.25.395v.001L.25.396v.001L.248.4V.4L.247.401v.002L.246.404v.002L.245.407V.41L.244.41v.003L.243.416V.434l.001.002V.44S.255.436.25.429c0 0 .018 0 .003-.015 0 0 .007-.004 0-.013L.253.393zM.49.397H.49L.488.399.487.4H.487V.4H.484v.001H.484L.483.403.482.403H.481L.48.405H.479L.478.406H.477L.476.407H.474L.471.408H.464C.452.404.494.43.49.405c0 0 .012 0 0-.008zM.57.398c.009.015.01.01.01.01C.582.421.59.42.59.42.586.442.596.44.596.44.602.44.599.43.599.43L.598.43V.427L.595.425V.423L.593.42V.419L.591.417V.416L.59.414.589.413.588.41.586.41V.409L.583.408.583.407.582.406.58.405V.404L.577.403H.577L.576.401H.575L.574.4.571.4.57.398H.57zM.539.4l.003.014c0 .017.005.054.005.054s.003.007-.002 0V.466L.543.464.543.463V.462L.541.46V.458L.54.457V.455L.54.453V.449L.538.446V.442L.537.44V.434L.536.432V.424L.535.422V.417S.533.398.53.402C.528.407.524.409.524.409.516.422.527.425.527.425c-.013.03.004.026.004.026-.006.014.005.026.005.026C.542.481.542.468.542.468l.005.008C.555.484.554.461.554.461.565.457.554.44.554.44.564.439.547.417.547.417S.55.417.55.412C.55.408.54.4.539.4zM.565.4C.561.401.56.407.56.407.583.429.58.45.58.45L.577.453V.448L.576.446V.443L.574.441V.44L.574.437V.435L.571.432V.43L.57.428V.427L.568.425.567.423V.421L.564.42V.418H.562V.415L.561.415.56.413H.56L.559.41.556.41V.407H.554c.008.042.01.03.01.03C.56.455.57.448.57.448.57.457.577.457.577.457.585.456.583.429.583.429.586.416.573.414.573.414.574.408.571.404.571.404L.565.402zm.021.002.015.02L.602.42C.603.414.6.417.6.417L.6.412V.408L.598.407V.406H.597V.405H.596V.404H.595L.594.403H.593L.591.402H.587zM.24.41zm0 0L.232.422C.22.438.233.436.233.436.231.448.241.441.241.441V.439L.24.438V.433L.238.43V.41H.24zM.173.423.171.426s0 .002.002.003c.004 0 0 .006 0 .006C.162.44.17.45.17.45.184.452.188.443.188.443c0-.003.004 0 .004 0C.194.441.194.435.194.435.184.435.185.43.185.43.181.432.174.444.174.444H.172c0-.004.005-.01.005-.01C.183.425.178.427.178.427V.426H.176L.175.425V.424H.174V.423H.173zm.114.005H.283V.43H.282V.43H.281L.28.434C.278.438.28.442.28.442.274.44.27.444.27.444.263.45.276.458.276.458.28.445.29.435.29.435V.43L.29.428H.288V.427H.287zM.221.429V.43H.22v.001H.218v.001H.217v.002H.216v.001H.215v.002L.214.44v.002L.213.444v.008h.001v.002l.001.001v.002h.001v.001S.232.452.226.445c0 0 .004-.003-.004-.016zM.3.431.297.432C.263.477.262.506.262.506.268.507.27.498.27.498.278.498.28.485.28.485.293.49.293.47.293.47V.47H.291V.467H.29V.455L.292.455V.452L.294.45.294.45V.447L.296.445.296.444V.443L.298.44.299.438V.437H.3V.435H.3V.43zm.005.004C.297.443.295.46.295.46.304.49.288.491.288.491c-.009.007 0 .03 0 .03.01 0 .01-.013.01-.013C.305.505.301.485.301.485.318.478.306.456.306.456h.001L.309.454H.31V.453L.31.452V.45h.001V.443L.31.442V.441L.304.435zM.202.436C.195.436.196.447.196.447.195.45.202.455.202.455L.2.461c0 .003 0 .007.004.008 0 0-.004.008.004.01 0 0 .006 0 .008-.007C.215.472.212.468.21.47V.466h.001V.464L.213.463V.453H.207C.213.439.202.436.202.436zM.481.44H.478L.48.44v.001h.001l.001.002h.002l.001.002.002.001.001.002.002.001.002.002.002.001.002.002.002.002L.5.458l.002.003.002.002.002.002.002.003.003.003.002.002.002.003.002.003.002.003.002.003.002.004.002.003.002.003L.529.5.53.502S.534.5.53.492c0 0 .01-.012-.006-.018 0 0 .005-.022-.02-.021C.504.453.51.44.482.439zM.246.442v.002L.244.445V.45L.243.451v.005L.242.458v.005L.241.465v.011L.24.48V.508l.001.004L.241.51S.237.503.237.497c0 0 .002-.029-.01-.019 0 0 .007 0 .005.007 0 0-.001.009-.005.012 0 0-.004.007.006.007 0 0 .003.015.01.015 0 0 .005-.002.005-.008 0 0 .014-.005.006-.024 0 0 .013 0 .007-.007 0 0-.012-.019-.01-.027 0 0 .003-.004-.005-.011zm.073.001C.32.456.314.458.314.458c.005.02-.007.03-.007.03C.311.5.301.512.301.512.313.512.31.5.31.5.324.51.323.482.323.482.34.483.32.46.32.46h.003V.45H.321V.449L.32.446V.445L.32.444V.443zM.474.45V.474L.472.476V.52S.483.513.479.508c0 0 .015-.002.003-.02 0 0 .015-.006-.003-.02 0 0 .01-.004-.005-.018zm.01 0C.493.466.487.47.487.47.5.483.49.491.49.491.492.5.505.493.505.493.5.508.52.504.52.504c.006.009.01.002.01.002L.527.505.526.503.526.502.525.5.523.498.522.496.52.494.52.492.517.49.515.488.513.485.511.483.507.478.504.474.502.47.5.47.498.467.496.465.494.463.493.461.49.46.49.458.488.456V.455H.486V.453H.485V.452L.484.451H.483V.45zM.47.458v.001H.468V.46H.467V.46H.466v.001L.465.463v.001H.464v.002H.463V.47l.003.003S.449.49.458.493c0 0-.005.017.004.015 0 0-.003.012.006.011 0 0-.003-.038.002-.062zM.22.464S.215.482.221.49L.214.483H.213v.001H.212L.211.486v.001H.21v.005h.001v.001h.001v.001h.001S.215.506.224.5c0 0-.007-.02.003-.035H.221zm.06.034H.28V.5H.277V.5H.276v.001H.275v.001H.274v.006h.001L.278.51S.274.523.282.522c0 0 .001.005.004.004 0 0 .001-.003-.003-.005C.282.52.284.516.279.51c0 0 .005-.008.001-.012z" fill="#009d56"/><path d="M.397.032H.394L.391.034H.39L.389.035.387.035.384.037v.001L.382.038.381.04H.38L.38.043.377.045v.002L.375.047V.05L.374.052v.003H.373V.06H.372c0 .016.007.03.022.031C.408.09.419.076.42.063.42.047.413.033.398.033H.397zM.34.033H.34v.001H.336v.001H.333L.31.04H.302v.017h.002C.306.049.309.042.317.041L.326.09.32.091v.003L.34.09V.088H.335L.327.04C.336.038.341.043.345.05h.002L.341.032zm.057.002H.4l.001.001h.001l.001.001h.001v.001h.001V.04L.407.04l.001.002v.001l.001.001v.004L.41.05v.012C.41.08.402.087.395.087.387.087.382.08.384.06.384.042.39.035.398.035zm.034.001V.04l.003.002-.01.048H.421V.09l.017.005V.092L.436.091.44.067h.004C.45.07.45.074.45.079h.002L.456.06H.454C.452.062.45.065.444.064L.44.064.445.042h.004c.01.003.013.009.016.018h.003V.043H.46L.432.035zm-.14.007L.277.048V.05c.004 0 .007 0 .008.004l.01.03-.037-.03L.244.06v.002c.004 0 .008.001.01.006L.264.1a.007.007 0 0 1-.003.01v.002L.279.106.277.104C.273.104.27.104.268.1L.258.066.3.1.304.099.289.054C.288.05.289.047.292.045V.043zm.207.01L.498.057.5.058l-.02.045H.478v.002l.027.012h.002v.001h.002V.12H.51V.12H.51v.001L.522.106.52.104C.511.111.504.114.494.11A.012.012 0 0 1 .49.107L.5.084l.004.001c.005.003.005.006.004.012L.51.098.52.08H.516C.512.083.51.084.505.082L.502.082.51.062a.01.01 0 0 1 .004.001c.01.005.013.01.013.02L.53.084.533.068C.532.068.53.068.526.066L.5.054zm-.27.012A.017.017 0 0 1 .223.07L.197.084v.002L.203.085l.023.043L.222.13v.003L.25.118h.001L.253.116h.003V.115h.001L.253.098.249.1c0 .01-.001.017-.011.023a.012.012 0 0 1-.004.001L.222.101.225.099C.229.097.232.1.236.103L.24.102.229.084.227.085c.002.006.001.01-.004.012L.221.1.21.079S.213.08.214.078C.224.072.229.073.238.08L.24.078.229.065zm.318.01L.546.079V.08h.002V.08H.55v.001L.522.122.518.12.517.122l.018.012c.015.01.03.001.036-.01C.578.115.58.098.565.089L.547.076zm.01.011L.563.09c.007.005.01.013 0 .03C.55.136.542.136.534.13H.533V.13H.532V.128H.531L.53.127.556.085zM.183.092.173.1l.01.031-.03-.017-.01.01.001.001.004-.002.025.034c.004.004.002.007 0 .01L.175.17.188.16.186.159C.182.16.179.16.176.156L.154.126l.034.02.001-.001L.178.107.206.14.203.144l.002.002.014-.012L.218.132.214.135.182.097.185.094.183.092zm.412.016L.593.11l.003.003L.57.14C.562.15.566.158.574.166c.011.01.02.006.027-.001L.62.144C.622.14.626.14.63.144L.632.141.619.13.617.132c.003.003.004.006 0 .01l-.02.022C.59.17.584.17.578.164a.013.013 0 0 1 0-.017L.603.12l.003.002h.001V.12h.001L.595.107zM.13.134v.003H.13v.001H.128V.14H.127V.14L.11.16a.017.017 0 0 1-.006.004l.01.014.003-.002C.114.17.112.162.118.156l.037.032-.002.004.002.002L.167.18.165.178.162.181.124.148C.13.141.137.143.145.145L.146.143.131.134zm.504.022a.038.038 0 0 0-.022.009C.6.175.596.188.605.199V.2h.002v.002H.61v.001l.002.001h.001v.001h.002l.001.001H.63V.202C.624.204.617.203.613.199.605.189.614.176.624.169.631.161.643.158.649.165.653.172.65.181.647.188L.65.19.66.176A.02.02 0 0 1 .657.173L.654.169A.02.02 0 0 0 .635.157zM.103.181C.096.18.09.187.086.194L.075.211l.002.001h.001V.21H.08V.21H.08V.208l.041.027L.12.24.122.24l.01-.015L.13.224.127.228.107.214.108.21.14.213.147.2.145.2.142.203.114.201C.117.195.116.187.11.183A.014.014 0 0 0 .103.181zM.098.19C.1.19.102.19.104.192.11.196.112.202.106.21v.001H.104v.002L.084.201c0-.002.002-.004.003-.005C.09.192.094.19.098.19zM.675.2.672.206.63.214C.626.214.623.214.62.21H.617v.001l.007.014.003-.002C.627.222.626.22.628.218L.632.216.639.215.65.23l-.01.011L.636.239.634.24l.01.016h.001L.644.25.681.21.675.2zM.67.209V.21H.667L.666.212.666.213v.001L.664.214H.664L.663.217.66.22.66.22.658.221.657.222v.001H.655L.655.226H.653v.001H.652v.001H.651v.001L.641.215.67.208zm.027.028L.679.24v.003c.008 0 .015.001.019.01L.65.268.649.265.646.266l.007.018.002-.001V.278L.7.26C.704.27.7.275.694.28l.001.002L.71.273H.708V.27H.707V.27L.706.268V.267L.705.266.697.243A.018.018 0 0 1 .696.236zM.06.24l-.003.01h.005l.032.028C.098.28.1.282.1.287h.002v.001L.108.274.105.273C.103.275.102.277.1.276A.01.01 0 0 1 .096.274L.09.27.098.252l.015.001-.001.004.002.001.008-.017L.119.24.117.244.06.239zm.006.01H.082L.083.25h.008v.001h.003L.088.267.068.249zm-.006.02C.053.268.048.276.045.285L.04.306h.002V.304h.001V.302l.048.013V.32h.002L.098.304H.096L.094.305.072.3.073.297C.076.285.077.272.065.269H.06zm-.003.01h.004c.009.002.01.01.009.017v.001L.07.299V.3L.046.293V.288C.05.28.053.278.058.278zm.654.006H.709V.29L.663.302.66.298H.657l.004.018h.003V.31L.711.3l.002.004h.002L.712.285zM.694.316H.69C.676.319.664.33.665.344c.002.014.019.022.032.02C.712.36.725.35.723.336V.333L.721.33.72.328H.72V.326H.717V.324H.717L.716.323.715.323H.714L.713.32H.712L.71.32.707.318H.707L.705.317H.702L.702.316H.694zM.052.32.036.322V.33L.032.36h.003L.036.355l.049.006v.005h.003L.09.336V.331L.093.33V.328h.001L.076.321.075.325c.009.006.013.011.012.023V.35L.06.35V.345c0-.005.004-.007.01-.007V.335L.051.333v.002c.006.002.008.005.008.01v.003L.036.346V.342C.038.33.043.327.052.323V.32zm.65.006c.012 0 .017.005.018.01v.006H.718v.001L.717.345v.001H.716v.001H.714v.001H.714v.001H.711V.35H.71L.707.35H.705L.704.352H.7L.699.353H.696C.678.356.67.35.669.343.668.336.673.33.693.328h.009zM.244.35H.242v.003V.35zM.67.367.669.384h.002C.672.38.674.377.68.378l.034.001-.046.028v.004l.047.002C.718.413.72.415.72.419h.003V.405H.722C.721.408.72.41.715.41L.684.408l.04-.024.001-.015H.723c0 .004-.004.007-.008.007L.68.374A.007.007 0 0 1 .672.367H.67zM.062.37H.06C.047.37.032.378.033.396v.022h.003V.413L.087.41v.004H.09V.394C.087.377.073.37.061.37zm.26.003v.001h.001L.325.373H.322zM.064.38C.08.38.086.387.086.395v.006l-.05.002a.02.02 0 0 1 0-.005C.036.388.04.38.06.38a.08.08 0 0 1 .004 0zm.01.07L.07.465H.056l.012.008-.005.013.011-.008.011.008L.081.472.092.464H.078L.073.45zm.608 0L.678.465H.664l.011.008-.004.013.01-.008.012.008L.689.472l.01-.008H.685L.682.45zM.115.52.113.523l.001.003-.021.013C.086.542.086.548.09.555.096.564.102.563.108.56L.125.55C.127.548.129.55.13.551.132.553.13.555.129.557L.111.572C.108.574.106.573.104.572H.102l.008.01V.58c0-.002 0-.004.002-.006L.13.559.12.595.12.596l.025-.02C.147.576.15.577.152.578V.576L.147.568H.145c.001.003.002.005 0 .006L.127.587l.01-.03L.132.549.126.54.125.541c.001.002 0 .005-.002.006L.106.558C.1.561.096.56.093.555A.009.009 0 0 1 .096.543L.118.53.12.532h.001L.115.52zM.64.522.638.528H.64l.02.021c.002.003.003.004.002.007h.001v.001L.67.547H.668C.667.548.666.55.664.549L.662.547.66.543l.006-.01.01.001-.001.003h.001l.006-.01L.68.526.678.528.641.521zm.003.007h.003L.65.53h.002L.654.53h.005L.66.532h.003l-.005.01L.644.529zM.63.54v.004L.626.545.624.548c-.006.008 0 .019.008.024C.641.578.651.578.656.57h.001V.567L.659.566V.556L.656.555V.554L.655.553V.552H.653c.002.004.003.009 0 .013C.65.572.64.569.633.564.627.561.623.554.626.55.63.545.636.545.641.545V.543L.632.54zM.614.563l-.008.01h.002L.61.573l.026.02-.002.003h.001v.001l.008-.01L.64.588.614.567.616.564.614.563zm-.46.014v.004L.132.603.128.602H.126l.008.01L.137.61.135.608.159.586l.003.002.001-.002L.154.577zM.605.58C.601.58.597.583.594.587l-.01.01h.003V.595l.025.023L.61.62l.001.001L.62.613H.619L.616.613.605.603.607.6l.02.006.006-.007H.63L.612.596C.614.59.615.585.612.583A.009.009 0 0 0 .604.58zM.601.585c.001 0 .003 0 .005.002C.61.591.61.595.605.6H.603v.001L.591.591.594.588A.009.009 0 0 1 .601.585zM.166.589l-.01.006.001.002c.005-.002.01-.004.015 0L.149.622.146.62v.002L.153.63.155.629.154.626.176.602C.181.606.18.61.178.616h.001l.006-.01H.182V.604H.181V.603L.168.593A.014.014 0 0 1 .166.589zm.414.01a.013.013 0 0 1-.004.004L.561.616v.002L.565.616l.022.026-.002.002.001.001.016-.013V.63h.002V.63h.002L.6.617.598.62C.6.626.599.631.593.636L.591.637.58.624.58.623C.584.62.586.62.59.623H.59L.582.611.581.613C.583.617.583.62.58.621L.578.623.569.612.571.61C.577.605.581.605.587.608L.588.606.58.6zM.187.61v.002l.001.002-.02.026L.166.638.165.639.18.652h.001v.001h.001v.001h.001v.001l.01-.008L.193.646C.186.649.182.65.175.646L.173.642.183.63h.002c.003.003.003.005.001.01h.002L.196.63.195.627C.19.631.189.632.186.63H.185L.193.616l.003.001C.202.623.203.626.2.633l.002.001.005-.01A.013.013 0 0 1 .203.62L.187.61zm.371.01L.55.624l.005.022L.537.633.529.638V.64L.533.638l.015.024C.55.666.548.667.547.67V.67l.01-.005L.556.663C.553.665.551.664.55.661L.536.64l.022.015L.554.628l.018.025-.003.002.001.001L.58.65V.648L.576.649.556.622.56.62V.619zM.211.627V.63h.001L.197.66.193.657.192.66l.012.007c.01.006.02 0 .024-.007C.233.652.234.64.224.635L.21.627zm.007.007.004.002c.005.003.007.008 0 .02S.21.668.204.666V.664H.202V.663H.201V.662L.217.634zm.297.01L.51.648.512.65.516.68c0 .003 0 .005-.002.007v.001l.01-.004V.68H.518L.518.677V.673l.01-.006.008.007-.003.002.001.001.011-.005V.67H.542L.515.645zM.514.652v.001h.001v.001h.001l.001.001.001.001.001.001L.52.66h.002v.002h.001v.001h.001v.001h.001v.001h.001v.001L.517.67.515.652zm-.257 0a.01.01 0 0 0-.009.006c-.006.014.014.018.01.027A.007.007 0 0 1 .25.69C.244.686.242.679.242.674H.24l-.002.01.003.001.007.005C.254.693.261.69.264.685.269.67.249.668.253.658.254.655.257.654.261.655c.005.002.005.009.006.013h.001l.003-.01A.007.007 0 0 1 .265.654L.262.653a.01.01 0 0 0-.005 0zm.23.005L.482.66.464.666v.001h.003l.011.031L.476.7v.001L.488.697V.696H.483L.48.68h.003C.485.678.487.68.489.684H.49L.486.67H.484c.001.004 0 .007-.003.008H.478L.474.666.476.663c.007-.002.01 0 .016.005L.493.667.487.657zM.277.66.271.67h.002C.276.668.28.664.286.666l-.01.032H.273v.002l.011.003V.701L.283.699l.01-.032C.298.67.3.674.3.68H.3L.303.668H.297L.282.661A.012.012 0 0 1 .277.66zM.45.669H.445V.67H.442v.001H.442v.001H.44v.001H.44L.439.676H.438v.002L.436.678V.68L.435.682v.005H.434v.006c.003.01.01.018.02.015C.465.705.468.694.466.685.464.675.458.669.45.669zM.312.671v.003L.299.699C.297.702.296.703.292.703v.001l.01.003V.705S.3.704.3.702V.7L.304.695l.013.003v.01H.315v.001l.012.003V.71L.324.71.319.672.312.67zm.136 0h.003l.001.001h.001v.001h.001v.001l.001.001v.001l.001.001V.68h.001V.68l.001.001v.003L.46.685v.001c.003.012 0 .018-.004.02C.45.705.445.702.442.69.44.678.442.673.447.671h.001zM.332.674l-.004.01.002.002C.332.68.336.676.342.677L.338.711H.335v.002l.012.001V.712H.344L.348.678c.006 0 .008.005.01.01h.001V.677H.353L.336.675.332.674zm.082.001A.007.007 0 0 1 .41.677H.404a.01.01 0 0 0-.01.01c.002.015.02.009.022.019a.007.007 0 0 1-.007.007C.403.713.4.709.396.703L.394.705l.003.011L.4.714h.01C.415.715.42.71.42.704.42.688.4.695.398.684.398.681.4.68.404.678c.005 0 .009.005.011.009h.001L.415.674zm-.1.002V.69L.316.69v.005L.306.693.313.677zm.073 0L.382.678h-.02V.68h.003v.033H.362v.002H.386v.001h.001L.39.704H.388C.385.71.382.714.374.714a.01.01 0 0 1-.003 0V.695h.002c.004 0 .005.002.006.006h.002V.69H.38C.38.693.377.694.373.694H.371V.68h.003c.008 0 .01.002.014.009H.39L.387.676z" fill="#fff"/><path d="M.378.65h.014L.406.647.42.646.433.644.447.641.459.637.472.633.485.628.497.623.508.617.52.61.53.603.543.595l.01-.008.01-.008.01-.01L.58.56.59.55.597.54.605.53.612.517.618.507.624.495.63.483.635.471.639.458.643.445.646.432.648.418.65.405V.39L.652.377A.273.273 0 1 0 .378.65z" stroke="#ffd90f" stroke-miterlimit="10.433" stroke-width=".009000000000000001" fill="none"/></svg>